<?xml version="1.0" encoding="UTF-8" standalone="no" ?>
<!DOCTYPE svg PUBLIC "-//W3C//DTD SVG 1.1//EN" "http://www.w3.org/Graphics/SVG/1.1/DTD/svg11.dtd">
<svg xmlns="http://www.w3.org/2000/svg" xmlns:xlink="http://www.w3.org/1999/xlink" version="1.1" width="1080" height="400" viewBox="0 0 1080 400" xml:space="preserve">
<desc>Created with Fabric.js 5.2.4</desc>
<defs>
</defs>
<g transform="matrix(1 0 0 1 540 200)" id="e5a8ac51-e1e1-492e-8cb4-73964a246c51"  >
<rect style="stroke: none; stroke-width: 1; stroke-dasharray: none; stroke-linecap: butt; stroke-dashoffset: 0; stroke-linejoin: miter; stroke-miterlimit: 4; fill: rgb(44,62,80); fill-rule: nonzero; opacity: 1; visibility: hidden;" vector-effect="non-scaling-stroke"  x="-540" y="-200" rx="0" ry="0" width="1080" height="400" />
</g>
<g transform="matrix(Infinity NaN NaN Infinity 0 0)" id="1309c30f-1f82-460a-950c-107dab7b4c5d"  >
</g>
<g transform="matrix(1.28 0 0 1.28 540 200)"  >
<g style="" vector-effect="non-scaling-stroke"   >
		<g transform="matrix(0.13 0 0 -0.13 -358.71 -48.32)"  >
<path style="stroke: none; stroke-width: 1; stroke-dasharray: none; stroke-linecap: butt; stroke-dashoffset: 0; stroke-linejoin: miter; stroke-miterlimit: 4; fill: rgb(44,62,80); fill-rule: nonzero; opacity: 1;" vector-effect="non-scaling-stroke"  transform=" translate(-862.68, -5203.78)" d="M 768 5841 C 545 5817 402 5625 454 5421 C 487 5294 553 5234 760 5150 C 961 5067 1020 5025 1040 4951 C 1062 4869 1026 4791 950 4753 C 864 4709 709 4730 601 4800 C 550 4832 480 4902 480 4920 C 480 4926 476 4930 470 4930 C 464 4930 460 4901 460 4863 C 459 4825 453 4764 446 4725 C 438 4687 435 4652 438 4649 C 454 4634 612 4589 700 4574 C 904 4539 1091 4587 1192 4699 C 1262 4777 1284 4829 1288 4935 C 1292 5043 1273 5096 1202 5172 C 1145 5233 1075 5275 934 5335 C 798 5391 736 5429 710 5472 C 668 5541 697 5626 773 5660 C 820 5682 911 5686 975 5669 C 1035 5654 1119 5608 1145 5578 C 1158 5562 1173 5550 1178 5550 C 1183 5550 1193 5596 1200 5653 C 1221 5822 1231 5802 1110 5821 C 974 5843 852 5850 768 5841 z" stroke-linecap="round" />
</g>
		<g transform="matrix(0.13 0 0 -0.13 -80.27 -47.08)"  >
<path style="stroke: none; stroke-width: 1; stroke-dasharray: none; stroke-linecap: butt; stroke-dashoffset: 0; stroke-linejoin: miter; stroke-miterlimit: 4; fill: rgb(44,62,80); fill-rule: nonzero; opacity: 1;" vector-effect="non-scaling-stroke"  transform=" translate(-2950.96, -5194.5)" d="M 2427 5778 L 2455 5725 L 2458 5176 C 2461 4633 2461 4626 2440 4598 L 2419 4570 L 2572 4570 C 2694 4571 2722 4573 2709 4583 C 2671 4613 2667 4653 2662 5055 L 2658 5445 L 2685 5405 C 2700 5383 2747 5323 2789 5272 C 2853 5192 2900 5131 2984 5015 C 3000 4993 3111 4835 3230 4666 L 3305 4559 L 3370 4562 L 3434 4565 L 3436 5015 C 3439 5494 3445 5699 3461 5752 C 3466 5770 3480 5793 3493 5802 C 3514 5818 3508 5819 3362 5822 C 3246 5824 3210 5822 3210 5813 C 3210 5806 3213 5800 3218 5800 C 3222 5800 3232 5788 3240 5772 C 3252 5750 3255 5680 3258 5393 C 3260 5199 3257 5040 3253 5040 C 3248 5040 3233 5059 3218 5083 C 3203 5106 3164 5163 3131 5210 C 3097 5257 3051 5322 3028 5354 C 3006 5387 2981 5420 2974 5429 C 2966 5438 2941 5473 2918 5507 C 2894 5540 2833 5627 2782 5699 L 2689 5830 L 2544 5830 L 2400 5830 L 2427 5778 z" stroke-linecap="round" />
</g>
		<g transform="matrix(0.13 0 0 -0.13 145.52 -37.94)"  >
<path style="stroke: none; stroke-width: 1; stroke-dasharray: none; stroke-linecap: butt; stroke-dashoffset: 0; stroke-linejoin: miter; stroke-miterlimit: 4; fill: rgb(44,62,80); fill-rule: nonzero; opacity: 1;" vector-effect="non-scaling-stroke"  transform=" translate(-4644.42, -5125.94)" d="M 4700 5824 C 4700 5821 4717 5791 4738 5757 L 4775 5697 L 4781 5441 C 4784 5300 4786 5184 4784 5182 C 4783 5180 4777 5207 4771 5241 C 4749 5370 4648 5523 4535 5601 C 4475 5642 4365 5690 4292 5706 C 4193 5728 4013 5721 3925 5691 C 3710 5619 3568 5475 3503 5265 C 3475 5171 3479 4999 3513 4895 C 3608 4606 3884 4405 4160 4423 C 4213 4427 4280 4440 4340 4459 C 4559 4529 4696 4655 4779 4860 C 4786 4879 4789 4864 4789 4790 C 4789 4673 4778 4613 4754 4595 C 4737 4582 4748 4580 4845 4579 C 4906 4579 4981 4577 5013 4576 C 5072 4574 5096 4584 5061 4595 C 5024 4606 5017 4650 5016 4887 L 5015 5112 L 5061 5115 L 5107 5118 L 5189 4992 C 5234 4922 5312 4801 5362 4723 L 5453 4580 L 5594 4579 C 5672 4579 5750 4577 5768 4576 C 5811 4571 5817 4585 5780 4600 C 5745 4614 5671 4684 5613 4755 C 5570 4809 5360 5119 5360 5129 C 5360 5132 5385 5146 5415 5159 C 5483 5188 5538 5240 5570 5306 C 5591 5349 5594 5369 5595 5465 C 5595 5566 5593 5579 5568 5626 C 5536 5687 5465 5760 5417 5783 C 5331 5824 5276 5830 4983 5830 C 4827 5830 4700 5827 4700 5824 z M 4083 5669 C 4007 5660 3901 5629 3862 5603 C 3822 5578 3844 5579 3909 5605 C 3972 5631 4156 5655 4173 5640 C 4178 5636 4146 5629 4103 5625 C 4047 5620 4013 5611 3982 5593 C 3958 5579 3941 5565 3944 5562 C 3947 5559 3955 5562 3962 5567 C 3979 5580 4043 5592 4036 5581 C 4033 5576 4018 5570 4003 5567 C 3987 5564 3966 5554 3955 5546 C 3936 5531 3936 5530 3963 5540 C 3980 5546 3990 5546 3990 5540 C 3990 5534 3986 5530 3982 5530 C 3977 5530 3965 5523 3954 5515 C 3937 5503 3941 5503 3984 5515 C 4011 5523 4053 5530 4078 5530 C 4133 5530 4130 5522 4075 5519 C 4053 5518 4015 5506 3990 5494 C 3940 5468 3940 5466 3988 5479 C 4006 5485 4018 5485 4015 5480 C 4012 5475 4018 5470 4027 5468 C 4039 5466 4022 5453 3980 5432 C 3944 5414 3900 5386 3881 5370 C 3863 5353 3845 5340 3842 5340 C 3835 5340 3876 5387 3914 5423 C 3948 5455 3940 5458 3894 5429 C 3860 5408 3846 5416 3875 5440 C 3907 5467 3888 5469 3853 5443 L 3815 5415 L 3838 5445 C 3851 5461 3874 5483 3888 5492 C 3903 5502 3910 5510 3904 5510 C 3899 5510 3879 5499 3860 5485 C 3821 5456 3812 5453 3830 5475 C 3837 5484 3841 5493 3838 5495 C 3836 5498 3813 5479 3787 5454 C 3761 5429 3740 5413 3740 5419 C 3740 5424 3757 5446 3778 5467 C 3799 5488 3820 5513 3823 5523 C 3829 5538 3827 5539 3807 5529 C 3795 5523 3775 5508 3763 5497 C 3727 5465 3736 5494 3773 5530 L 3805 5563 L 3755 5534 C 3706 5507 3705 5507 3725 5530 C 3796 5616 3950 5679 4085 5678 L 4155 5677 L 4083 5669 z M 5241 5642 C 5305 5609 5338 5554 5347 5467 C 5361 5327 5279 5249 5100 5232 C 5055 5227 5017 5227 5015 5230 C 5012 5235 5007 5614 5010 5663 C 5010 5667 5050 5670 5099 5670 C 5177 5670 5194 5667 5241 5642 z M 4279 5281 C 4385 5227 4435 5077 4382 4973 C 4358 4926 4291 4864 4244 4844 C 4137 4799 3987 4860 3929 4972 C 3903 5023 3903 5118 3930 5169 C 3956 5220 4023 5277 4080 5295 C 4137 5314 4227 5307 4279 5281 z M 4329 4813 C 4317 4798 4317 4797 4333 4803 C 4348 4809 4350 4806 4345 4791 C 4340 4775 4343 4773 4362 4777 C 4374 4781 4395 4795 4408 4809 C 4434 4837 4429 4822 4397 4777 C 4382 4754 4375 4751 4368 4762 C 4361 4772 4360 4771 4364 4757 C 4367 4747 4361 4731 4350 4720 C 4339 4709 4334 4700 4339 4700 C 4345 4700 4352 4705 4355 4710 C 4358 4716 4366 4720 4372 4720 C 4379 4720 4378 4714 4370 4705 C 4343 4673 4380 4692 4414 4728 C 4434 4748 4450 4762 4450 4757 C 4450 4746 4358 4657 4330 4641 C 4316 4633 4271 4625 4230 4624 L 4155 4620 L 4217 4634 C 4276 4646 4310 4660 4280 4660 C 4271 4660 4273 4665 4286 4675 C 4304 4689 4304 4689 4284 4684 C 4272 4681 4259 4683 4256 4689 C 4252 4695 4256 4700 4264 4700 C 4272 4700 4281 4704 4285 4709 C 4288 4715 4278 4715 4258 4709 C 4212 4696 4203 4698 4225 4715 C 4298 4770 4302 4765 4188 4762 C 4131 4760 4074 4763 4061 4767 C 4045 4773 4071 4776 4141 4776 C 4234 4775 4250 4778 4288 4799 C 4311 4813 4330 4828 4330 4834 C 4330 4839 4333 4840 4336 4837 C 4340 4833 4337 4823 4329 4813 z M 4650 4752 C 4650 4743 4639 4730 4579 4664 C 4455 4528 4324 4470 4140 4470 C 4050 4470 3930 4493 3944 4507 C 3947 4510 3964 4506 3982 4499 C 4049 4471 4305 4488 4326 4522 C 4330 4528 4329 4530 4322 4526 C 4317 4523 4310 4524 4308 4529 C 4306 4536 4290 4536 4265 4530 C 4243 4525 4176 4521 4115 4522 L 4005 4523 L 4120 4530 C 4201 4536 4250 4544 4285 4559 C 4328 4577 4331 4580 4305 4578 C 4289 4578 4230 4578 4175 4580 L 4075 4583 L 4182 4595 C 4245 4602 4299 4614 4314 4623 C 4327 4632 4354 4641 4374 4643 C 4394 4645 4417 4653 4427 4661 C 4442 4673 4443 4673 4435 4660 C 4431 4652 4420 4636 4411 4626 C 4393 4604 4393 4604 4464 4635 L 4503 4651 L 4479 4622 C 4464 4604 4452 4597 4448 4604 C 4443 4611 4440 4609 4440 4599 C 4440 4590 4430 4575 4418 4566 C 4400 4553 4399 4551 4415 4559 C 4426 4564 4450 4580 4469 4594 C 4488 4608 4508 4620 4512 4620 C 4521 4620 4633 4736 4638 4751 C 4643 4762 4650 4763 4650 4752 z" stroke-linecap="round" />
</g>
		<g transform="matrix(0.13 0 0 -0.13 355.66 -30.77)"  >
<path style="stroke: none; stroke-width: 1; stroke-dasharray: none; stroke-linecap: butt; stroke-dashoffset: 0; stroke-linejoin: miter; stroke-miterlimit: 4; fill: rgb(44,62,80); fill-rule: nonzero; opacity: 1;" vector-effect="non-scaling-stroke"  transform=" translate(-6220.49, -5072.17)" d="M 6105 5554 C 5975 5524 5909 5504 5908 5497 C 5907 5485 5932 5356 5937 5347 C 5939 5343 5953 5349 5967 5360 C 6009 5393 6123 5423 6189 5418 C 6282 5411 6324 5366 6318 5280 L 6315 5237 L 6229 5220 C 6051 5184 5962 5148 5879 5079 C 5715 4942 5744 4683 5933 4599 C 5974 4581 6003 4576 6075 4576 C 6203 4575 6275 4610 6326 4696 C 6335 4712 6339 4710 6356 4675 C 6368 4650 6390 4626 6415 4612 C 6452 4591 6462 4589 6560 4595 C 6618 4599 6667 4604 6669 4606 C 6671 4608 6655 4628 6632 4650 C 6609 4673 6585 4708 6579 4728 C 6572 4749 6564 4879 6560 5035 C 6554 5272 6550 5313 6531 5372 C 6519 5409 6497 5453 6483 5471 C 6448 5512 6368 5548 6282 5560 C 6197 5572 6178 5572 6105 5554 z M 6328 4983 C 6325 4880 6322 4859 6300 4822 C 6267 4763 6224 4739 6156 4739 C 6074 4739 6019 4774 6001 4838 C 5980 4911 6027 4986 6123 5033 C 6180 5061 6276 5092 6324 5099 C 6328 5099 6330 5047 6328 4983 z" stroke-linecap="round" />
</g>
		<g transform="matrix(0.13 0 0 -0.13 -225.82 -30.12)"  >
<path style="stroke: none; stroke-width: 1; stroke-dasharray: none; stroke-linecap: butt; stroke-dashoffset: 0; stroke-linejoin: miter; stroke-miterlimit: 4; fill: rgb(44,62,80); fill-rule: nonzero; opacity: 1;" vector-effect="non-scaling-stroke"  transform=" translate(-1859.39, -5067.33)" d="M 1747 5549 C 1670 5531 1595 5487 1529 5421 C 1425 5317 1388 5225 1389 5070 C 1391 4805 1553 4611 1797 4580 C 1998 4554 2204 4656 2278 4818 C 2334 4940 2345 5093 2309 5228 C 2264 5398 2169 5494 2001 5544 C 1942 5561 1810 5564 1747 5549 z M 1930 5393 C 2023 5363 2095 5244 2107 5098 C 2119 4962 2066 4810 1988 4755 C 1908 4699 1791 4719 1714 4802 C 1641 4878 1615 4971 1622 5125 C 1628 5244 1651 5302 1713 5356 C 1778 5411 1841 5422 1930 5393 z" stroke-linecap="round" />
</g>
		<g transform="matrix(0.13 0 0 -0.13 14.19 95.75)"  >
<path style="stroke: none; stroke-width: 1; stroke-dasharray: none; stroke-linecap: butt; stroke-dashoffset: 0; stroke-linejoin: miter; stroke-miterlimit: 4; fill: rgb(44,62,80); fill-rule: nonzero; opacity: 1;" vector-effect="non-scaling-stroke"  transform=" translate(-3659.43, -4123.28)" d="M 2815 4399 C 2714 4391 2583 4375 2300 4334 C 2169 4315 1892 4251 1740 4204 C 1578 4154 1449 4108 1454 4103 C 1458 4099 1482 4104 1646 4149 C 1724 4170 2048 4231 2205 4254 C 2538 4303 2689 4314 3030 4314 C 3220 4314 3425 4309 3505 4302 C 3714 4283 4156 4223 4256 4200 C 4279 4195 4378 4177 4476 4161 C 4644 4133 4837 4090 5045 4036 C 5095 4022 5180 4002 5235 3990 C 5323 3972 5792 3859 5845 3844 L 5865 3838 L 5845 3853 C 5827 3866 5726 3907 5470 4006 C 5330 4060 5067 4140 4890 4181 C 4843 4192 4749 4215 4680 4232 C 4478 4280 4124 4335 3750 4375 C 3435 4408 3066 4418 2815 4399 z" stroke-linecap="round" />
</g>
</g>
</g>
</svg>